<svg xmlns="http://www.w3.org/2000/svg" width="1100" height="650" viewBox="0 0 1100 650">
<rect width="100%" height="100%" fill="#f8fafc"/>
<text x="550.0" y="42.0" font-family="Arial, sans-serif" font-size="24" text-anchor="middle" font-weight="700" fill="#203040">Grounding scorer ablation</text>
<line x1="100" y1="545.0" x2="1060" y2="545.0" stroke="#dbe4ec"/>
<text x="88.0" y="550.0" font-family="Arial, sans-serif" font-size="12" text-anchor="end" font-weight="400" fill="#203040">0%</text>
<line x1="100" y1="499.5" x2="1060" y2="499.5" stroke="#dbe4ec"/>
<text x="88.0" y="504.5" font-family="Arial, sans-serif" font-size="12" text-anchor="end" font-weight="400" fill="#203040">10%</text>
<line x1="100" y1="454.0" x2="1060" y2="454.0" stroke="#dbe4ec"/>
<text x="88.0" y="459.0" font-family="Arial, sans-serif" font-size="12" text-anchor="end" font-weight="400" fill="#203040">20%</text>
<line x1="100" y1="408.5" x2="1060" y2="408.5" stroke="#dbe4ec"/>
<text x="88.0" y="413.5" font-family="Arial, sans-serif" font-size="12" text-anchor="end" font-weight="400" fill="#203040">30%</text>
<line x1="100" y1="363.0" x2="1060" y2="363.0" stroke="#dbe4ec"/>
<text x="88.0" y="368.0" font-family="Arial, sans-serif" font-size="12" text-anchor="end" font-weight="400" fill="#203040">40%</text>
<line x1="100" y1="317.5" x2="1060" y2="317.5" stroke="#dbe4ec"/>
<text x="88.0" y="322.5" font-family="Arial, sans-serif" font-size="12" text-anchor="end" font-weight="400" fill="#203040">50%</text>
<line x1="100" y1="272.0" x2="1060" y2="272.0" stroke="#dbe4ec"/>
<text x="88.0" y="277.0" font-family="Arial, sans-serif" font-size="12" text-anchor="end" font-weight="400" fill="#203040">60%</text>
<line x1="100" y1="226.5" x2="1060" y2="226.5" stroke="#dbe4ec"/>
<text x="88.0" y="231.5" font-family="Arial, sans-serif" font-size="12" text-anchor="end" font-weight="400" fill="#203040">70%</text>
<line x1="100" y1="181.0" x2="1060" y2="181.0" stroke="#dbe4ec"/>
<text x="88.0" y="186.0" font-family="Arial, sans-serif" font-size="12" text-anchor="end" font-weight="400" fill="#203040">80%</text>
<line x1="100" y1="135.5" x2="1060" y2="135.5" stroke="#dbe4ec"/>
<text x="88.0" y="140.5" font-family="Arial, sans-serif" font-size="12" text-anchor="end" font-weight="400" fill="#203040">90%</text>
<line x1="100" y1="90.0" x2="1060" y2="90.0" stroke="#dbe4ec"/>
<text x="88.0" y="95.0" font-family="Arial, sans-serif" font-size="12" text-anchor="end" font-weight="400" fill="#203040">100%</text>
<text x="260.0" y="595.0" font-family="Arial, sans-serif" font-size="12" text-anchor="middle" font-weight="400" fill="#203040">lexical only</text>
<rect x="239.0" y="361.6" width="42.0" height="183.4" rx="3" fill="#2563eb"/>
<text x="260.0" y="354.6" font-family="Arial, sans-serif" font-size="11" text-anchor="middle" font-weight="700" fill="#203040">40.31</text>
<text x="580.0" y="595.0" font-family="Arial, sans-serif" font-size="12" text-anchor="middle" font-weight="400" fill="#203040">model only</text>
<rect x="559.0" y="231.7" width="42.0" height="313.3" rx="3" fill="#2563eb"/>
<text x="580.0" y="224.7" font-family="Arial, sans-serif" font-size="11" text-anchor="middle" font-weight="700" fill="#203040">68.85</text>
<text x="900.0" y="595.0" font-family="Arial, sans-serif" font-size="12" text-anchor="middle" font-weight="400" fill="#203040">hybrid max</text>
<rect x="879.0" y="188.1" width="42.0" height="356.9" rx="3" fill="#2563eb"/>
<text x="900.0" y="181.1" font-family="Arial, sans-serif" font-size="11" text-anchor="middle" font-weight="700" fill="#203040">78.43</text>
<rect x="120" y="622" width="14" height="14" fill="#2563eb"/>
<text x="141.0" y="634.0" font-family="Arial, sans-serif" font-size="12" text-anchor="start" font-weight="400" fill="#203040">Pass rate</text>
</svg>